<svg width="30" height="21" viewBox="0 0 30 21" fill="none" xmlns="http://www.w3.org/2000/svg">
<path d="M30 18V3C30 1.61667 28.8183 0.5 27.3545 0.5H2.6455C1.18166 0.5 0 1.61667 0 3V18C0 19.3833 1.18166 20.5 2.6455 20.5H27.3545C28.8183 20.5 30 19.3833 30 18ZM27.6896 2.81667C28.2716 3.36667 27.9541 3.93333 27.6367 4.21667L20.4762 10.4167L27.3545 17.1833C27.5661 17.4167 27.7072 17.7833 27.4603 18.0333C27.231 18.3 26.7019 18.2833 26.4727 18.1167L18.7654 11.9L14.9912 15.15L11.2346 11.9L3.52734 18.1167C3.29806 18.2833 2.76896 18.3 2.53968 18.0333C2.29277 17.7833 2.43386 17.4167 2.6455 17.1833L9.52381 10.4167L2.36332 4.21667C2.04586 3.93333 1.72839 3.36667 2.31041 2.81667C2.89242 2.26667 3.49206 2.53333 3.98589 2.93333L14.9912 11.3333L26.0141 2.93333C26.5079 2.53333 27.1076 2.26667 27.6896 2.81667Z" fill="white" fill-opacity="0.75"/>
</svg>
